<?xml version="1.0" encoding="UTF-8" standalone="no"?><svg xmlns:svg="http://www.w3.org/2000/svg" xmlns="http://www.w3.org/2000/svg" version="1.1" style="overflow:visible" viewBox="-250 -250 500 500" height="2000px" width="2000px"><rect fill-opacity="0" fill="rgb(0,0,0)" height="500" width="500" y="-250" x="-250" /><svg version="1.1" y="-250" x="-250" viewBox="-250 -250 500 500" height="500px" width="500px" style="overflow:visible"><g transform="rotate(0,0,0)" stroke-linejoin="round" fill="#fff"><path stroke-linecap="butt" stroke-linejoin="round" stroke="none" fill="rgb(222,69,69)" d="m-57.195 77.519c18.3273 30.9668 39.3756 59.5356 57.1951 84.4806c37.5618-52.5816 89.5046-121.225 99.9351-194.62z" /><path stroke-linecap="butt" stroke-linejoin="round" stroke="none" fill="rgb(255,68,68)" d="m0.002999-162.0028c-56.2289 0-101.814 41.9288-101.814 103.562c0 47.7365 19.8146 94.049 44.6192 135.96c69.4188-2.95323 123.868-57.6734 157.103-110.139c1.2151-8.54919 1.90088-17.1607 1.90088-25.8209c0-61.6334-45.58-103.562-101.809-103.562z" /><path stroke-linecap="butt" stroke-linejoin="round" stroke-width="15" stroke-opacity="1" stroke="rgb(68,68,68)" fill="none" d="m0-162c-56.2289 0-101.811 41.9274-101.811 103.561c0 83.0072 59.8747 161.733 101.811 220.439c41.9366-58.7057 101.811-137.432 101.811-220.439c0-61.6334-45.5824-103.561-101.811-103.561z" /><path stroke-linecap="butt" stroke-linejoin="round" stroke-width="15" stroke-opacity="1" stroke="rgb(68,68,68)" fill="rgb(255,255,255)" d="m47.723999-63.692001a47.7235 48.4614 0 0 1-47.7235 48.4614a47.7235 48.4614 0 0 1-47.7235-48.4614a47.7235 48.4614 0 0 1 47.7235-48.4614a47.7235 48.4614 0 0 1 47.7235 48.4614z" /></g></svg></svg>