<?xml version="1.0" encoding="UTF-8"?>
<svg xmlns="http://www.w3.org/2000/svg" xmlns:xlink="http://www.w3.org/1999/xlink" width="50px" height="50px" viewBox="0 0 50 50" version="1.1">
<g id="surface1">
<path style=" stroke:none;fill-rule:nonzero;fill:rgb(87.058824%,27.058824%,27.058824%);fill-opacity:1;" d="M 19.28125 32.75 C 21.113281 35.847656 23.21875 38.707031 25 41.199219 C 28.757812 35.941406 33.949219 29.078125 34.992188 21.738281 Z M 19.28125 32.75 "/>
<path style=" stroke:none;fill-rule:nonzero;fill:rgb(100%,26.666667%,26.666667%);fill-opacity:1;" d="M 25 8.800781 C 19.378906 8.800781 14.820312 12.992188 14.820312 19.15625 C 14.820312 23.929688 16.800781 28.5625 19.28125 32.75 C 26.222656 32.457031 31.667969 26.984375 34.992188 21.738281 C 35.113281 20.882812 35.179688 20.023438 35.179688 19.15625 C 35.179688 12.992188 30.625 8.800781 25 8.800781 Z M 25 8.800781 "/>
<path style="fill:none;stroke-width:15;stroke-linecap:butt;stroke-linejoin:round;stroke:rgb(26.666667%,26.666667%,26.666667%);stroke-opacity:1;stroke-miterlimit:4;" d="M 0 -161.992188 C -56.210938 -161.992188 -101.796875 -120.078125 -101.796875 -58.4375 C -101.796875 24.570312 -41.953125 103.28125 0 161.992188 C 41.953125 103.28125 101.796875 24.570312 101.796875 -58.4375 C 101.796875 -120.078125 56.210938 -161.992188 0 -161.992188 Z M 0 -161.992188 " transform="matrix(0.1,0,0,0.1,25,25)"/>
<path style="fill-rule:nonzero;fill:rgb(100%,100%,100%);fill-opacity:1;stroke-width:15;stroke-linecap:butt;stroke-linejoin:round;stroke:rgb(26.666667%,26.666667%,26.666667%);stroke-opacity:1;stroke-miterlimit:4;" d="M 47.734375 -63.710938 C 47.734375 -36.914062 26.367188 -15.234375 0 -15.234375 C -26.367188 -15.234375 -47.734375 -36.914062 -47.734375 -63.710938 C -47.734375 -90.46875 -26.367188 -112.148438 0 -112.148438 C 26.367188 -112.148438 47.734375 -90.46875 47.734375 -63.710938 Z M 47.734375 -63.710938 " transform="matrix(0.1,0,0,0.1,25,25)"/>
</g>
</svg>
